<svg width="38px" height="37px" viewBox="0 0 38 37" version="1.1" xmlns="http://www.w3.org/2000/svg" xmlns:xlink="http://www.w3.org/1999/xlink">
    <defs></defs>
    <g id="Page-1" stroke="none" stroke-width="1" fill="none" fill-rule="evenodd" stroke-linecap="round">
        <g id="cirrus-logo" transform="translate(3.000000, 3.000000)" stroke="#212121" stroke-width="4">
            <path d="M0,30.6352941 L26.9090909,30.6352941" id="Shape" fill="#000000" fill-rule="nonzero"></path>
            <path d="M26.9090909,30.6352941 C29.7207224,30.6352941 32,28.3493127 32,25.5294118 C32,22.7095108 29.7207224,20.4235294 26.9090909,20.4235294" id="Shape"></path>
            <path d="M0,20.4235294 L26.9090909,20.4235294" id="Shape" fill="#000000" fill-rule="nonzero"></path>
            <path d="M26.9090909,20.4235294 C29.7207224,20.4235294 32,18.137548 32,15.3176471 C32,12.4977461 29.7207224,10.2117647 26.9090909,10.2117647" id="Shape"></path>
            <path d="M0,10.2117647 L26.9090909,10.2117647" id="Shape" fill="#000000" fill-rule="nonzero"></path>
            <path d="M26.9090909,10.2117647 C29.7207223,10.2117647 31.9999999,7.92578328 31.9999999,5.10588235 C31.9999999,2.28598142 29.7207223,4.20197953e-08 26.9090909,-3.55271368e-15" id="Shape"></path>
        </g>
    </g>
</svg>